<mxfile host="app.diagrams.net" modified="2023-11-02T01:49:25.487Z" agent="Mozilla/5.0 (Windows NT 10.0; Win64; x64) AppleWebKit/537.36 (KHTML, like Gecko) Chrome/118.0.0.0 Safari/537.36" etag="YKAS-TudFjGm3tz5eipS" version="22.0.8" type="github">
  <diagram id="R2lEEEUBdFMjLlhIrx00" name="Page-1">
    <mxGraphModel dx="1050" dy="534" grid="1" gridSize="10" guides="1" tooltips="1" connect="1" arrows="1" fold="1" page="1" pageScale="1" pageWidth="1100" pageHeight="850" math="0" shadow="0" extFonts="Permanent Marker^https://fonts.googleapis.com/css?family=Permanent+Marker">
      <root>
        <mxCell id="0" />
        <mxCell id="1" parent="0" />
        <mxCell id="2r0ZIO0Jz3gE18lx533l-1" value="회원" style="whiteSpace=wrap;html=1;align=center;" vertex="1" parent="1">
          <mxGeometry x="200" y="150" width="100" height="40" as="geometry" />
        </mxCell>
        <mxCell id="2r0ZIO0Jz3gE18lx533l-2" value="기업" style="whiteSpace=wrap;html=1;align=center;" vertex="1" parent="1">
          <mxGeometry x="460" y="350" width="100" height="40" as="geometry" />
        </mxCell>
        <mxCell id="2r0ZIO0Jz3gE18lx533l-3" value="의뢰" style="whiteSpace=wrap;html=1;align=center;" vertex="1" parent="1">
          <mxGeometry x="450" y="150" width="100" height="40" as="geometry" />
        </mxCell>
        <mxCell id="2r0ZIO0Jz3gE18lx533l-4" value="아이디" style="ellipse;whiteSpace=wrap;html=1;align=center;fontStyle=4;" vertex="1" parent="1">
          <mxGeometry x="60" y="10" width="100" height="40" as="geometry" />
        </mxCell>
        <mxCell id="2r0ZIO0Jz3gE18lx533l-5" value="의뢰번호" style="ellipse;whiteSpace=wrap;html=1;align=center;fontStyle=4;" vertex="1" parent="1">
          <mxGeometry x="350" y="40" width="100" height="40" as="geometry" />
        </mxCell>
        <mxCell id="2r0ZIO0Jz3gE18lx533l-6" value="사업자번호" style="ellipse;whiteSpace=wrap;html=1;align=center;fontStyle=4;" vertex="1" parent="1">
          <mxGeometry x="320" y="405" width="100" height="40" as="geometry" />
        </mxCell>
        <mxCell id="2r0ZIO0Jz3gE18lx533l-7" value="비밀번호" style="ellipse;whiteSpace=wrap;html=1;align=center;" vertex="1" parent="1">
          <mxGeometry x="60" y="60" width="100" height="40" as="geometry" />
        </mxCell>
        <mxCell id="2r0ZIO0Jz3gE18lx533l-8" value="이름" style="ellipse;whiteSpace=wrap;html=1;align=center;" vertex="1" parent="1">
          <mxGeometry x="60" y="110" width="100" height="40" as="geometry" />
        </mxCell>
        <mxCell id="2r0ZIO0Jz3gE18lx533l-9" value="업종2차" style="ellipse;whiteSpace=wrap;html=1;align=center;" vertex="1" parent="1">
          <mxGeometry x="60" y="260" width="100" height="40" as="geometry" />
        </mxCell>
        <mxCell id="2r0ZIO0Jz3gE18lx533l-10" value="업종1차" style="ellipse;whiteSpace=wrap;html=1;align=center;" vertex="1" parent="1">
          <mxGeometry x="60" y="210" width="100" height="40" as="geometry" />
        </mxCell>
        <mxCell id="2r0ZIO0Jz3gE18lx533l-11" value="전화번호" style="ellipse;whiteSpace=wrap;html=1;align=center;" vertex="1" parent="1">
          <mxGeometry x="60" y="160" width="100" height="40" as="geometry" />
        </mxCell>
        <mxCell id="2r0ZIO0Jz3gE18lx533l-12" value="회사명" style="ellipse;whiteSpace=wrap;html=1;align=center;" vertex="1" parent="1">
          <mxGeometry x="60" y="310" width="100" height="40" as="geometry" />
        </mxCell>
        <mxCell id="2r0ZIO0Jz3gE18lx533l-13" value="업무용이메일" style="ellipse;whiteSpace=wrap;html=1;align=center;" vertex="1" parent="1">
          <mxGeometry x="60" y="360" width="100" height="40" as="geometry" />
        </mxCell>
        <mxCell id="2r0ZIO0Jz3gE18lx533l-14" value="사업자번호" style="ellipse;whiteSpace=wrap;html=1;align=center;" vertex="1" parent="1">
          <mxGeometry x="60" y="410" width="100" height="40" as="geometry" />
        </mxCell>
        <mxCell id="2r0ZIO0Jz3gE18lx533l-15" value="권한" style="ellipse;whiteSpace=wrap;html=1;align=center;" vertex="1" parent="1">
          <mxGeometry x="60" y="460" width="100" height="40" as="geometry" />
        </mxCell>
        <mxCell id="2r0ZIO0Jz3gE18lx533l-18" value="업종2차" style="ellipse;whiteSpace=wrap;html=1;align=center;" vertex="1" parent="1">
          <mxGeometry x="540" y="405" width="100" height="40" as="geometry" />
        </mxCell>
        <mxCell id="2r0ZIO0Jz3gE18lx533l-19" value="업종1차" style="ellipse;whiteSpace=wrap;html=1;align=center;" vertex="1" parent="1">
          <mxGeometry x="430" y="405" width="100" height="40" as="geometry" />
        </mxCell>
        <mxCell id="2r0ZIO0Jz3gE18lx533l-20" value="회사명" style="ellipse;whiteSpace=wrap;html=1;align=center;" vertex="1" parent="1">
          <mxGeometry x="650" y="405" width="100" height="40" as="geometry" />
        </mxCell>
        <mxCell id="2r0ZIO0Jz3gE18lx533l-21" value="설립년도" style="ellipse;whiteSpace=wrap;html=1;align=center;" vertex="1" parent="1">
          <mxGeometry x="760" y="405" width="100" height="40" as="geometry" />
        </mxCell>
        <mxCell id="2r0ZIO0Jz3gE18lx533l-22" value="매출규모" style="ellipse;whiteSpace=wrap;html=1;align=center;" vertex="1" parent="1">
          <mxGeometry x="870" y="405" width="100" height="40" as="geometry" />
        </mxCell>
        <mxCell id="2r0ZIO0Jz3gE18lx533l-23" value="위치" style="ellipse;whiteSpace=wrap;html=1;align=center;" vertex="1" parent="1">
          <mxGeometry x="980" y="405" width="100" height="40" as="geometry" />
        </mxCell>
        <mxCell id="2r0ZIO0Jz3gE18lx533l-24" value="아이디" style="ellipse;whiteSpace=wrap;html=1;align=center;" vertex="1" parent="1">
          <mxGeometry x="460" y="40" width="100" height="40" as="geometry" />
        </mxCell>
        <mxCell id="2r0ZIO0Jz3gE18lx533l-25" value="의뢰내용" style="ellipse;whiteSpace=wrap;html=1;align=center;" vertex="1" parent="1">
          <mxGeometry x="570" y="40" width="100" height="40" as="geometry" />
        </mxCell>
        <mxCell id="2r0ZIO0Jz3gE18lx533l-26" value="매칭결과" style="whiteSpace=wrap;html=1;align=center;" vertex="1" parent="1">
          <mxGeometry x="730" y="90" width="100" height="40" as="geometry" />
        </mxCell>
        <mxCell id="2r0ZIO0Jz3gE18lx533l-28" value="의뢰번호" style="ellipse;whiteSpace=wrap;html=1;align=center;" vertex="1" parent="1">
          <mxGeometry x="850" y="90" width="100" height="40" as="geometry" />
        </mxCell>
        <mxCell id="2r0ZIO0Jz3gE18lx533l-29" value="사업자번호" style="ellipse;whiteSpace=wrap;html=1;align=center;" vertex="1" parent="1">
          <mxGeometry x="850" y="140" width="100" height="40" as="geometry" />
        </mxCell>
        <mxCell id="2r0ZIO0Jz3gE18lx533l-30" value="의뢰번호" style="ellipse;whiteSpace=wrap;html=1;align=center;" vertex="1" parent="1">
          <mxGeometry x="850" y="270" width="100" height="40" as="geometry" />
        </mxCell>
        <mxCell id="2r0ZIO0Jz3gE18lx533l-31" value="매칭번호" style="ellipse;whiteSpace=wrap;html=1;align=center;fontStyle=4;" vertex="1" parent="1">
          <mxGeometry x="850" y="40" width="100" height="40" as="geometry" />
        </mxCell>
        <mxCell id="2r0ZIO0Jz3gE18lx533l-32" value="솔루션결과" style="whiteSpace=wrap;html=1;align=center;" vertex="1" parent="1">
          <mxGeometry x="730" y="270" width="100" height="40" as="geometry" />
        </mxCell>
        <mxCell id="2r0ZIO0Jz3gE18lx533l-33" value="솔루션" style="ellipse;whiteSpace=wrap;html=1;align=center;" vertex="1" parent="1">
          <mxGeometry x="850" y="320" width="100" height="40" as="geometry" />
        </mxCell>
        <mxCell id="2r0ZIO0Jz3gE18lx533l-34" value="솔루션번호" style="ellipse;whiteSpace=wrap;html=1;align=center;fontStyle=4;" vertex="1" parent="1">
          <mxGeometry x="850" y="220" width="100" height="40" as="geometry" />
        </mxCell>
        <mxCell id="2r0ZIO0Jz3gE18lx533l-35" value="만족도" style="whiteSpace=wrap;html=1;align=center;" vertex="1" parent="1">
          <mxGeometry x="200" y="510" width="100" height="40" as="geometry" />
        </mxCell>
        <mxCell id="2r0ZIO0Jz3gE18lx533l-36" value="의뢰번호" style="ellipse;whiteSpace=wrap;html=1;align=center;" vertex="1" parent="1">
          <mxGeometry x="210" y="610" width="100" height="40" as="geometry" />
        </mxCell>
        <mxCell id="2r0ZIO0Jz3gE18lx533l-37" value="사업자번호" style="ellipse;whiteSpace=wrap;html=1;align=center;" vertex="1" parent="1">
          <mxGeometry x="320" y="610" width="100" height="40" as="geometry" />
        </mxCell>
        <mxCell id="2r0ZIO0Jz3gE18lx533l-38" value="만족도번호" style="ellipse;whiteSpace=wrap;html=1;align=center;fontStyle=4;" vertex="1" parent="1">
          <mxGeometry x="100" y="610" width="100" height="40" as="geometry" />
        </mxCell>
        <mxCell id="2r0ZIO0Jz3gE18lx533l-39" value="점수1" style="ellipse;whiteSpace=wrap;html=1;align=center;" vertex="1" parent="1">
          <mxGeometry x="430" y="610" width="100" height="40" as="geometry" />
        </mxCell>
        <mxCell id="2r0ZIO0Jz3gE18lx533l-40" value="점수2" style="ellipse;whiteSpace=wrap;html=1;align=center;" vertex="1" parent="1">
          <mxGeometry x="540" y="610" width="100" height="40" as="geometry" />
        </mxCell>
        <mxCell id="2r0ZIO0Jz3gE18lx533l-41" value="점수3" style="ellipse;whiteSpace=wrap;html=1;align=center;" vertex="1" parent="1">
          <mxGeometry x="650" y="610" width="100" height="40" as="geometry" />
        </mxCell>
        <mxCell id="2r0ZIO0Jz3gE18lx533l-42" value="매칭평가" style="ellipse;whiteSpace=wrap;html=1;align=center;" vertex="1" parent="1">
          <mxGeometry x="760" y="610" width="100" height="40" as="geometry" />
        </mxCell>
      </root>
    </mxGraphModel>
  </diagram>
</mxfile>
